Simulation
nRows=40
nColumns=15
endheader
time  TH_x TH_y TH_z SC_y  SC_z  SC_x  AC_y  AC_z  AC_x  GH_y  GH_z  GH_yy  EL_x  PS_y
1.55  0.000000  0.000000  0.000000  -4.932264110025778  3.737284826644153  -58.13915043624097  28.947785509023607  41.99544133151905  48.46891505335078  -81.93386686069343  10.538692147868002  12.655138976558623  4.208405883234801  120.000000
1.581  0.000000  0.000000  0.000000  -1.3684386448687982  7.3538617542539795  -60.60321010365633  29.290860037534575  39.08106283509369  51.90055256641707  -27.972417711115902  9.692969301124643  -40.3409137667005  -1.9052543928144001  120.000000
1.612  0.000000  0.000000  0.000000  -4.5759565174020995  9.11599602716897  -62.96823303514212  29.108605501762476  38.2495890819875  53.03960145626917  4.3541318216824765  23.756981786108177  -62.99050986118109  -12.11181829942283  120.000000
1.643  0.000000  0.000000  0.000000  -20.482052694314756  1.8458998564400846  -64.62566022859585  23.046462601018465  44.364738488792  50.709728257614536  24.430852485552446  47.48212816430834  -59.453081258687945  -24.933067149570213  120.000000
1.674  0.000000  0.000000  0.000000  -34.898644233177556  -9.527395236154877  -66.17606487286906  0.2008852234034755  49.758627640938215  54.80661903063367  45.02308056487455  65.78937450650024  -39.576950851575866  -31.702363437209396  120.000000
1.705  0.000000  0.000000  0.000000  -23.281521551842125  3.665269618206114  -65.29843440709172  -13.440831803397673  54.777816346240286  49.50171911821495  53.56356181026859  60.55562905427048  -13.963282186062825  -30.54733502352519  120.000000
1.736  0.000000  0.000000  0.000000  -0.5344388431171736  36.92788367423865  -72.15127253477584  7.190959635575263  39.17019572749105  38.74259387706116  36.30151982367931  55.107354663841136  15.544789086670972  -19.996714052762886  120.000000
1.767  0.000000  0.000000  0.000000  -34.943865802290546  44.507770599669556  -17.61390086025636  45.06783840648799  1.627613016954717  64.94728382711959  10.882879900884253  74.56527644918047  34.32502916887795  12.111613727620643  120.000000
1.798  0.000000  0.000000  0.000000  -28.537054681308685  7.9847410844748525  35.45957147813701  88.0341184714995  -24.016444344212154  61.138384238823896  -31.64123816714175  118.00193786224582  30.87962331300348  35.09853960407071  120.000000
1.829  0.000000  0.000000  0.000000  -11.233621782434565  15.724632470917335  62.713836732869645  62.637768959441644  -65.1191955753033  -13.381996610789933  -69.2890440063013  140.37085121172956  30.67297658300452  29.169661539693987  120.000000
1.8599999999999999  0.000000  0.000000  0.000000  -16.955248748854473  27.718177137692933  77.0892682251985  -25.259613851208634  -29.757166351786935  -79.51683846965878  -45.47614664935522  148.86876988312076  61.844871966478294  8.666927670686011  120.000000
1.891  0.000000  0.000000  0.000000  -12.830397561332566  44.78942575073562  88.76518692807697  -41.43423346375155  -46.78241627439508  -52.85840841615593  -36.415479854991126  160.90064883539463  40.81846755058314  -19.576635870079553  120.000000
1.922  0.000000  0.000000  0.000000  -1.3758478782267745  51.37261081348438  59.036421512510984  40.82972630308739  -59.15880405890934  39.09693912322765  -73.86295882350875  148.60154825102038  -13.91759670535472  -33.579359892159594  120.000000
1.953  0.000000  0.000000  0.000000  -9.999339533157723  40.904634832920074  21.2262392691245  43.318447909433246  -39.46665139201863  43.69313510048555  -77.55602810503514  117.72129483247645  -11.712854251576724  -22.64322331907904  120.000000
1.984  0.000000  0.000000  0.000000  -12.68178287354258  39.346611768022505  7.996829701563356  36.8680443695885  -34.71680181074215  35.477176285702704  -88.80376432354016  80.23868007057706  2.514523632567941  -6.753699155943103  120.000000
2.015  0.000000  0.000000  0.000000  -3.8947101978746583  40.417247092120554  9.099571761924768  37.998257901190506  -38.711258756537774  39.14247874098865  -115.47613972232338  59.08654754401613  30.587188992659907  1.9864439492193244  120.000000
2.046  0.000000  0.000000  0.000000  0.48938292354482615  39.97236082234528  17.383936548885448  49.1859070554383  -36.11128213588831  51.786919123391456  -143.82937969097884  46.945680433700446  65.29914011056184  10.354949477138426  120.000000
2.077  0.000000  0.000000  0.000000  -5.2125980980507585  47.160932090569986  34.92281890365805  63.22058211644635  -31.066456787105732  70.35215983202704  -160.62580261209152  36.965055471377426  96.81120126215421  20.246679373391878  120.000000
2.108  0.000000  0.000000  0.000000  -21.451765939228288  55.14475694507102  61.511234984937836  70.39388945031988  -25.34990803554793  89.10400083577034  -140.6350158543798  25.725065648039845  95.47420130417434  24.95739850717499  120.000000
2.139  0.000000  0.000000  0.000000  -27.47612064756602  51.78278290803303  80.26599730721885  77.62947630706176  -22.806597821470692  96.83094130685451  -87.28437520791174  29.7802055057006  59.042605825601655  19.483999097109272  120.000000
2.17  0.000000  0.000000  0.000000  -22.03588885653867  28.836262823459784  85.79265346337127  104.21941289072966  -37.2607335994376  89.1398796060162  -47.18626535329432  42.88264215496487  37.870103908104014  15.843731902946352  120.000000
2.201  0.000000  0.000000  0.000000  -20.442942450135494  7.327705847241474  78.44220556665125  112.6066842501737  -72.70045993646647  62.782787744069935  -11.945161322445767  50.61072376350156  23.05568734586975  19.416214881168717  120.000000
2.232  0.000000  0.000000  0.000000  -21.777408006503187  -1.2899203341972783  62.6350406787101  27.6797775784777  -62.83315949658751  -43.3782242889939  7.314920213591575  51.857976301639226  14.280352764113552  19.34464707568208  120.000000
2.263  0.000000  0.000000  0.000000  -24.45334290182018  -6.523085198052644  51.671724076565454  33.84850332047993  -41.342678481957066  -50.650559454601435  6.958010051099143  45.852192546025584  12.615512981438576  14.499220070595982  120.000000
2.294  0.000000  0.000000  0.000000  -25.6325343143679  -5.61738234720634  47.46875457253819  41.99544271731321  -26.48224447956652  -45.314840772258286  -4.256359105969913  37.372207913126275  16.847321964323047  10.363606687963859  120.000000
2.325  0.000000  0.000000  0.000000  -28.191499775931465  -1.6385850067855592  44.46282028640367  49.822400202286516  -15.43036743383086  -36.52754670839812  -17.846845796856993  32.45598856832603  23.889341317182453  8.212640055678529  120.000000
2.356  0.000000  0.000000  0.000000  -31.703187827972194  2.8539998966996354  41.967340589792556  54.76742859516077  -7.186456111121993  -28.184720608187884  -27.831430813272938  30.968833285347024  29.727401413051172  7.918412986569012  120.000000
2.387  0.000000  0.000000  0.000000  -35.474383990761105  6.244076281824375  40.63465664778596  55.950747687835666  -1.1451266655413137  -19.50781047449971  -34.733415641671805  30.72915597364292  34.783629477267084  8.237911627984127  120.000000
2.418  0.000000  0.000000  0.000000  -39.16218527489916  9.524358995453422  39.101765253839886  55.74890499751727  2.0015829921928723  -11.022634737502752  -39.20620755771383  30.504838390953086  39.309626947390434  8.814178796004546  120.000000
2.449  0.000000  0.000000  0.000000  -42.13552964196708  12.786747110432641  37.37225836880117  54.830291338228214  3.2186906733427856  -3.352406538449921  -42.166460339753414  29.514318406356253  43.69438758830836  9.433105623777406  120.000000
2.48  0.000000  0.000000  0.000000  -44.19132622970943  16.233279629362958  35.64443127763259  53.83577816339522  3.3929761058179726  2.775015447609216  -44.80323835198006  27.23654017980481  48.502335277541775  10.044378683189434  120.000000
2.511  0.000000  0.000000  0.000000  -45.32863094620949  19.978964759768957  34.049800312516396  53.08365214390303  3.320255662733362  7.032859671154343  -48.4226741322022  23.80659567098567  54.570656488909336  10.539719449770637  120.000000
2.542  0.000000  0.000000  0.000000  -45.9478859696131  23.64646460815981  32.91852088818164  52.18190266756173  3.1917102142233165  9.989614685834447  -53.58793234224478  19.994816423417735  62.30848712515576  10.899953959354601  120.000000
2.573  0.000000  0.000000  0.000000  -46.38709805829761  26.815313839187667  32.32187635282379  50.85355995269738  2.7908216953923524  12.23825335896163  -61.27382944109151  16.390268995045695  72.62503267175273  11.099127285407128  120.000000
2.604  0.000000  0.000000  0.000000  -46.62873448944882  29.4544410406188  32.17913086931311  49.36026122918275  2.1179379672159158  13.76386323245999  -73.27827220946178  13.374703040107592  87.35414621518855  11.221193823922274  120.000000
2.635  0.000000  0.000000  0.000000  -46.687454201883924  31.79898924243994  32.472843519683494  47.99746852681699  1.2744791290568491  14.530877528813605  -90.64068418122861  11.53268865697422  107.5867142924549  11.317598779793132  120.000000
2.666  0.000000  0.000000  0.000000  -46.674076474657774  33.80455059584035  33.180478913923075  46.80112196975545  0.31044234847895075  14.781874629915437  -109.92305044493682  11.323528402307014  129.90174078242916  11.41764635335438  120.000000
2.697  0.000000  0.000000  0.000000  -46.665056157539986  35.405862588354765  34.233227699922715  45.77313911497871  -0.818031401788209  14.706727836825177  -125.73032519651467  12.51943258081031  148.8845330593022  11.539525944487517  120.000000
2.7279999999999998  0.000000  0.000000  0.000000  -46.6796030105711  36.633131823253315  35.5770033482512  44.97061586197563  -2.028321680749997  14.388076374818237  -136.311040644001  14.533553797864592  162.74382266671168  11.734305415867436  120.000000
2.759  0.000000  0.000000  0.000000  -46.75231055347081  37.615035845698  37.19291252062066  44.439662700667434  -3.2470817308731963  13.888769772940382  -142.79523274384317  16.909656936060586  172.56950999390554  12.02331950357795  120.000000
